# xmcd CD database file
# Copyright (C) 1995-1998 Ti Kan
#
# Track frame offsets:
#	150
#	11109
#	26916
#	41123
#	54195
#	66113
#	77329
#	88562
#	99031
#	111325
#	119938
#	130750
#	143822
#	159443
#	170341
#	181597
#	192009
#	207861
#	221242
#	234512
#
# Disc length: 3441 seconds
#
# Revision: 3
# Processed by: cddbd v1.5.1PL0 Copyright (c) Steve Scherf et al.
# Submitted via: CDex 1.40Beta1
#
DISCID=0d0d6f14
DTITLE=John Lee Hooker - The Very Best Of CD2
DYEAR=1995
DGENRE=Blues
TTITLE0=No Shoes
TTITLE1=Dirty Ground Hog
TTITLE2=Hobo Blues (aka The Hobo) live
TTITLE3=I'm Goin' Upstairs
TTITLE4=I'm Mad Agagin
TTITLE5=What Do You Say
TTITLE6=Boom Boom
TTITLE7=She's Mine
TTITLE8=Drug Store Woman
TTITLE9=You Know I love You
TTITLE10=Send Me Your Pillow
TTITLE11=Don't Look Back
TTITLE12=One Way Ticket
TTITLE13=Bottle Up And Go
TTITLE14=This Is Hip
TTITLE15=Big Legs, Tight Skirt
TTITLE16=It Serves Me Right To Suffer
TTITLE17=Stella Mae
TTITLE18=One Bourbon, One Scotch, One Beer
TTITLE19=The Waterfront
EXTD=YEAR: 1995 ID3G:   0
EXTT0=
EXTT1=
EXTT2=
EXTT3=
EXTT4=
EXTT5=
EXTT6=
EXTT7=
EXTT8=
EXTT9=
EXTT10=
EXTT11=
EXTT12=
EXTT13=
EXTT14=
EXTT15=
EXTT16=
EXTT17=
EXTT18=
EXTT19=
PLAYORDER=
